<svg xmlns="http://www.w3.org/2000/svg" fill="currentColor" viewBox="0 0 111 16"><defs><path id="b" d="M72.00001-.00008H128V16H72.00001z"/><path id="a" d="M0 0h56.00001v15.99992H0z"/></defs><path d="M48.88097 2.10994c-1.09916-.37908-2.77126-.51726-2.4462.1513.054.1011.08567.168.1829.3687.57498 1.1805 1.13445 2.62582.95167 3.27125-.08101.25029.04466.15362.5521.44831.41336.24007.44825.37615.58397.2837.6296-.45479 1.39789-1.46812 1.82536-2.70959.07358-.21368.14896-.42119.11102-.61039-.08913-.41641-.46372-.7099-1.76082-1.20328Zm3.09626 2.38816c-.10268-.0299-.199.00863-.2836.1337-.06055.09733-.10175.15664-.22695.34119-.73486 1.0882-1.70867 2.29532-2.35902 2.45973-.25726.055-.11045.11624-.11194.70304-.0012.47802-.10058.57707.04734.64839.70866.31785 1.96954.476 3.25841.22546.22185-.04312.43964-.08234.58453-.2098.31606-.28539.38307-.75562.16179-2.12563-.17633-.90958-.66774-2.05876-1.07056-2.17608Zm-7.20955-1.98462c-.40518-.13106-.8468.04571-1.92262.92235-.87787.76235-1.83355 2.1409-1.09204 2.19367.11457.00378.18744.01137.40986.02752 1.30985.0923 2.84313.3305 3.3107.81152.17624.1953.1551.03738.66402-.25472.4146-.23796.54884-.20093.53664-.3647-.07906-.77264-.57165-1.94412-1.43306-2.93505-.14827-.17057-.29069-.33884-.4735-.4006Zm2.56978 4.54107c-1.2607-.43409-1.91183 1.45695-.65114 1.89104 1.2607.43409 1.91183-1.45695.65114-1.89104Zm-2.64719.0511c-.73387-.23988-1.8402-.33434-2.96797-.11512-.22184.04312-.43964.08235-.58452.2098-.31609.28536-.38307.75562-.1618 2.12563.22129 1.14143.9377 2.65816 1.35416 2.04237.06056-.09733.10177-.15663.22696-.34118.73486-1.0882 1.70867-2.29532 2.35902-2.45973.25727-.055.11045-.11624.11194-.70304.0012-.47802.10058-.57707-.04734-.6484-.08858-.03972-.1856-.07606-.29045-.11033zm7.67237 3.2801c-.02749-.0081-.05713-.0126-.09188-.0151-.11457-.0038-.18744-.01133-.40986-.02749-1.30985-.09234-2.84313-.33054-3.3107-.81156-.17624-.1953-.1551-.03738-.66402.25472-.41459.23796-.54884.20093-.53664.3647.07906.77264.57165 1.94412 1.43306 2.93505.14827.17057.29068.33885.4735.4006.40518.13104.8468-.04572 1.92262-.92237.83672-.72661 1.74274-2.01381 1.18392-2.17855zm-6.9421-1.0456c-.03287-.00739-.064.00079-.10217.02678-.6296.4548-1.39789 1.46813-1.82536 2.7096-.07358.21368-.14895.42119-.11102.61039.0891.41642.46373.7099 1.76083 1.20328 1.09915.37908 2.77125.51726 2.4462-.1513-.05402-.10111-.08568-.168-.1829-.3687-.575-1.1805-1.13446-2.62582-.95168-3.27125.08101-.25029-.04466-.15362-.5521-.44831-.2971-.17255-.39776-.29163-.4818-.3105z"/><path d="M47.0119 14.99999a7 7 0 1 1 0-14 7 7 0 0 1 0 14m0 1a8 8 0 1 0 0-16 8 8 0 0 0 0 16"/><text xml:space="preserve" x="32.29852" stroke-width="3" font-family="Renault Group" font-size="13.3333" font-weight="700" letter-spacing=".19" style="line-height:normal;-inkscape-font-specification:&quot;Renault Group, Bold&quot;;font-variant-ligatures:normal;font-variant-caps:normal;font-variant-numeric:normal;font-variant-east-asian:normal;text-align:end;text-decoration-color:#000;white-space:pre;shape-inside:url(#a);-inkscape-stroke:none" transform="translate(-18.98811 -.28887)"><tspan x="19.21674" y="12.55552">WIND</tspan></text><text xml:space="preserve" stroke-width="3" font-family="Renault Group" font-size="13.3333" font-weight="700" letter-spacing=".19" style="line-height:normal;-inkscape-font-specification:&quot;Renault Group, Bold&quot;;font-variant-ligatures:normal;font-variant-caps:normal;font-variant-numeric:normal;font-variant-east-asian:normal;text-align:start;text-decoration-color:#000;white-space:pre;shape-inside:url(#b);-inkscape-stroke:none" transform="translate(-14.98811 -.28887)"><tspan x="72" y="12.55552">LOGGER</tspan></text></svg>
