<?xml version="1.0" encoding="UTF-8" standalone="no"?>
<svg
   fill="currentColor"
   viewBox="0 0 16 16"
   version="1.1"
   id="svg2"
   sodipodi:docname="wind-logger-fan.svg"
   inkscape:version="1.4.2 (ebf0e940d0, 2025-05-08)"
   xmlns:inkscape="http://www.inkscape.org/namespaces/inkscape"
   xmlns:sodipodi="http://sodipodi.sourceforge.net/DTD/sodipodi-0.dtd"
   xmlns="http://www.w3.org/2000/svg"
   xmlns:svg="http://www.w3.org/2000/svg">
  <defs
     id="defs2" />
  <sodipodi:namedview
     id="namedview2"
     pagecolor="#ffffff"
     bordercolor="#000000"
     borderopacity="0.25"
     inkscape:showpageshadow="2"
     inkscape:pageopacity="0.0"
     inkscape:pagecheckerboard="0"
     inkscape:deskcolor="#d1d1d1"
     showgrid="false"
     inkscape:zoom="22.627417"
     inkscape:cx="2.9389126"
     inkscape:cy="5.5242717"
     inkscape:window-width="1920"
     inkscape:window-height="1013"
     inkscape:window-x="0"
     inkscape:window-y="0"
     inkscape:window-maximized="1"
     inkscape:current-layer="svg2">
    <inkscape:grid
       id="grid6"
       units="px"
       originx="0"
       originy="0"
       spacingx="1"
       spacingy="1"
       empcolor="#0099e5"
       empopacity="0.30196078"
       color="#0099e5"
       opacity="0.14901961"
       empspacing="5"
       enabled="true"
       visible="false" />
  </sodipodi:namedview>
  <path
     id="path6"
     d="M 9.8690702,2.1099574 C 8.7699184,1.730873 7.0978166,1.5926943 7.4228708,2.2612484 c 0.05401,0.1011093 0.085674,0.1679972 0.1828978,0.3686951 0.5749884,1.1805141 1.1344599,2.6258284 0.951674,3.271261 -0.081009,0.2502867 0.044661,0.153616 0.5520926,0.4483087 C 9.5229055,6.5895793 9.557793,6.7256641 9.6935163,6.6332207 10.323113,6.1784272 11.091401,5.1650917 11.518871,3.9236259 11.592451,3.7099385 11.66783,3.5024345 11.629896,3.3132351 11.54077,2.8968214 11.166173,2.6033258 9.8690702,2.1099574 Z m 3.0962608,2.3881538 c -0.10268,-0.029902 -0.198998,0.00863 -0.283591,0.1337063 -0.06056,0.097329 -0.101756,0.1566359 -0.226959,0.3411819 -0.73486,1.0882119 -1.708668,2.2953185 -2.359022,2.4597375 -0.2572591,0.054988 -0.110441,0.116236 -0.1119365,0.7030312 -0.00122,0.4780221 -0.1005787,0.5770763 0.047341,0.6483945 0.708662,0.3178508 1.969541,0.4759965 3.258416,0.2254644 0.221849,-0.043123 0.43964,-0.082347 0.584526,-0.2097995 0.316062,-0.285391 0.383072,-0.7556266 0.161789,-2.1256336 C 13.859565,5.764612 13.36815,4.615429 12.965331,4.4981112 Z M 5.755783,2.5134902 C 5.3506058,2.3824372 4.9089872,2.5592071 3.8331683,3.4358461 2.9552947,4.1981971 1.9996127,5.576741 2.7411248,5.6295131 2.855698,5.6332969 2.9285609,5.6408786 3.150981,5.6570311 4.4608306,5.7493338 5.9941092,5.987541 6.4616776,6.4685547 6.6379279,6.6638539 6.6167786,6.5059345 7.1257061,6.2138323 7.5402948,5.9758715 7.6745423,6.0129018 7.6623456,5.8491403 7.5832814,5.0764952 7.0906906,3.9050153 6.2292853,2.9140815 6.081016,2.7435171 5.9385984,2.5752401 5.755783,2.5134902 Z M 8.3255624,7.0545638 C 7.0648714,6.6204731 6.4137351,8.5115103 7.6744261,8.945601 8.9351169,9.3796917 9.5862532,7.4886544 8.3255624,7.0545638 Z m -2.6471873,0.0511 C 4.9445047,6.8657803 3.8381742,6.7713225 2.7104073,6.990538 2.4885597,7.0336608 2.2707673,7.0728896 2.1258826,7.2003374 1.8097989,7.4857049 1.7428097,7.9559649 1.9640919,9.3259709 2.1853706,10.467406 2.9017902,11.984129 3.3182482,11.368347 3.3788083,11.271014 3.4200098,11.211711 3.5452067,11.027165 4.2800676,9.9389535 5.2538751,8.7318472 5.9042292,8.5674279 6.1614888,8.5124402 6.0146698,8.4511918 6.0161654,7.8643967 6.0173837,7.3863745 6.1167435,7.2873201 5.9688237,7.216002 5.8802407,7.1762705 5.7832136,7.1399333 5.6783751,7.1056641 Z m 7.6723719,3.2801009 c -0.02749,-0.0081 -0.05713,-0.0126 -0.09188,-0.01511 -0.114568,-0.0038 -0.187439,-0.01132 -0.40986,-0.02748 C 11.539158,10.250836 10.005878,10.012629 9.5383106,9.5316149 9.3620604,9.3363158 9.3832091,9.4942347 8.874282,9.7863372 8.4596936,10.024294 8.325446,9.9872629 8.3376428,10.151024 c 0.079064,0.772646 0.5716548,1.944126 1.4330601,2.935059 0.1482695,0.170566 0.2906851,0.338845 0.4735021,0.400591 0.405178,0.131051 0.846796,-0.04571 1.922615,-0.922356 0.836723,-0.726615 1.74274,-2.013818 1.183927,-2.178553 z M 6.4086506,9.3401569 c -0.032883,-0.00738 -0.064006,7.943e-4 -0.1021787,0.026788 -0.629598,0.4547936 -1.3978847,1.4681298 -1.8253557,2.7095938 -0.073578,0.213687 -0.148953,0.421193 -0.1110176,0.610393 0.089094,0.416419 0.4637227,0.70991 1.7608241,1.203277 1.0991471,0.379082 2.7712476,0.517261 2.4461946,-0.151293 C 8.523104,13.637802 8.4914431,13.570919 8.3942199,13.370221 7.8192311,12.189707 7.2597599,10.744393 7.4425456,10.098961 7.5235548,9.8486734 7.3978852,9.9453441 6.8904532,9.6506515 6.5933433,9.478104 6.4926852,9.3590256 6.4086506,9.3401569 Z" />
  <path
     d="M8 15A7 7 0 1 1 8 1a7 7 0 0 1 0 14m0 1A8 8 0 1 0 8 0a8 8 0 0 0 0 16"
     id="path2"
     style="stroke-width:0.5;stroke-dasharray:none" />
</svg>
