<?xml version="1.0" encoding="UTF-8" standalone="no"?>
<svg
   fill="currentColor"
   viewBox="0 0 111 16"
   version="1.1"
   id="svg2"
   sodipodi:docname="wind-logger-logo.svg"
   inkscape:version="1.4.2 (ebf0e940d0, 2025-05-08)"
   xmlns:inkscape="http://www.inkscape.org/namespaces/inkscape"
   xmlns:sodipodi="http://sodipodi.sourceforge.net/DTD/sodipodi-0.dtd"
   xmlns="http://www.w3.org/2000/svg"
   xmlns:svg="http://www.w3.org/2000/svg">
  <defs
     id="defs2">
    <rect
       x="72.000008"
       y="-8.2233266e-05"
       width="55.999989"
       height="16.000082"
       id="rect2" />
    <rect
       x="0"
       y="0"
       width="56.000011"
       height="15.999918"
       id="rect1" />
  </defs>
  <sodipodi:namedview
     id="namedview2"
     pagecolor="#ffffff"
     bordercolor="#000000"
     borderopacity="0.25"
     inkscape:showpageshadow="2"
     inkscape:pageopacity="0.0"
     inkscape:pagecheckerboard="0"
     inkscape:deskcolor="#d1d1d1"
     showgrid="false"
     inkscape:zoom="4"
     inkscape:cx="69.25"
     inkscape:cy="-1.75"
     inkscape:window-width="1920"
     inkscape:window-height="1043"
     inkscape:window-x="0"
     inkscape:window-y="0"
     inkscape:window-maximized="1"
     inkscape:current-layer="svg2">
    <inkscape:grid
       id="grid6"
       units="px"
       originx="0"
       originy="0"
       spacingx="1"
       spacingy="1"
       empcolor="#0099e5"
       empopacity="0.30196078"
       color="#0099e5"
       opacity="0.14901961"
       empspacing="5"
       enabled="true"
       visible="false" />
  </sodipodi:namedview>
  <path
     id="path6"
     d="m 48.880966,2.1099446 c -1.099152,-0.3790844 -2.771253,-0.5172631 -2.446199,0.151291 0.05401,0.1011093 0.08567,0.1679972 0.182897,0.3686951 0.574989,1.1805141 1.13446,2.6258284 0.951674,3.271261 -0.08101,0.2502867 0.04466,0.153616 0.552093,0.4483087 0.41337,0.2400661 0.448258,0.3761509 0.583981,0.2837075 0.629597,-0.4547935 1.397885,-1.468129 1.825355,-2.7095948 0.07358,-0.2136874 0.148959,-0.4211914 0.111025,-0.6103908 C 50.552662,2.8968086 50.178069,2.603313 48.880966,2.1099446 Z m 3.096261,2.3881538 c -0.10268,-0.029902 -0.198998,0.00863 -0.283591,0.1337063 -0.06056,0.097329 -0.101756,0.1566359 -0.226959,0.3411819 -0.73486,1.0882119 -1.708668,2.2953185 -2.359022,2.4597375 -0.257259,0.054988 -0.110441,0.116236 -0.111937,0.7030312 -0.0012,0.4780221 -0.100578,0.5770763 0.04734,0.6483945 0.708662,0.3178508 1.969541,0.4759965 3.258416,0.2254644 0.22185,-0.043123 0.439641,-0.082347 0.584527,-0.2097995 C 53.202062,8.5144237 53.269072,8.0441881 53.04779,6.6741811 52.871461,5.7645992 52.380046,4.6154162 51.977227,4.4980984 Z m -7.209548,-1.984621 c -0.405177,-0.131053 -0.846796,0.045717 -1.922615,0.9223559 -0.877873,0.762351 -1.833555,2.1408949 -1.092043,2.193667 0.114573,0.00378 0.187436,0.011366 0.409856,0.027518 1.30985,0.092303 2.843128,0.3305099 3.310697,0.8115236 0.17625,0.1952992 0.1551,0.03738 0.664028,-0.2547224 0.414589,-0.2379608 0.548836,-0.2009305 0.53664,-0.364692 C 46.595177,5.0764824 46.102587,3.9050025 45.241181,2.9140687 45.092912,2.7435043 44.950494,2.5752273 44.767679,2.5134774 Z M 47.337458,7.054551 C 46.076767,6.6204603 45.425631,8.5114975 46.686322,8.9455882 47.947013,9.3796789 48.598149,7.4886416 47.337458,7.054551 Z m -2.647187,0.0511 C 43.956401,6.8657675 42.85007,6.7713097 41.722303,6.9905252 c -0.221847,0.043123 -0.43964,0.082352 -0.584525,0.2097994 -0.316083,0.2853675 -0.383072,0.7556275 -0.16179,2.1256335 0.221278,1.1414349 0.937698,2.6581579 1.354156,2.0423759 0.06056,-0.09733 0.101762,-0.156636 0.226959,-0.341182 0.734861,-1.0882113 1.708668,-2.2953176 2.359022,-2.4597369 0.25726,-0.054988 0.110441,-0.1162361 0.111936,-0.7030312 0.0012,-0.4780222 0.100578,-0.5770766 -0.04734,-0.6483947 -0.08858,-0.039731 -0.18561,-0.076069 -0.290449,-0.1103382 z m 7.672372,3.280101 c -0.02749,-0.0081 -0.05713,-0.0126 -0.09188,-0.01511 -0.114568,-0.0038 -0.187439,-0.01132 -0.40986,-0.02748 -1.309849,-0.09234 -2.843129,-0.330546 -3.310697,-0.8115599 -0.17625,-0.1952991 -0.155101,-0.03738 -0.664028,0.2547223 -0.414588,0.2379566 -0.548836,0.2009257 -0.536639,0.3646866 0.07906,0.772646 0.571654,1.944126 1.43306,2.935059 0.148269,0.170566 0.290685,0.338845 0.473502,0.400591 0.405178,0.131051 0.846796,-0.04571 1.922615,-0.922356 0.836723,-0.726615 1.74274,-2.013818 1.183927,-2.178553 z M 45.420547,9.3401441 c -0.03288,-0.00738 -0.06401,7.943e-4 -0.102179,0.026788 -0.629598,0.4547936 -1.397885,1.4681299 -1.825356,2.7095939 -0.07358,0.213687 -0.148953,0.421193 -0.111018,0.610393 0.0891,0.416419 0.463723,0.70991 1.760825,1.203277 1.099147,0.379082 2.771247,0.517261 2.446194,-0.151293 -0.05401,-0.101114 -0.08567,-0.167997 -0.182897,-0.368695 -0.574989,-1.180514 -1.13446,-2.625828 -0.951674,-3.27126 0.08101,-0.2502874 -0.04466,-0.1536167 -0.552093,-0.4483093 -0.29711,-0.1725475 -0.397768,-0.2916259 -0.481802,-0.3104946 z" />
  <path
     d="m 47.011896,14.999987 a 7.0000001,7.0000001 0 1 1 0,-13.99999982 7.0000001,7.0000001 0 0 1 0,13.99999982 m 0,1 a 8.0000001,8.0000001 0 1 0 0,-15.999999836391 8.0000001,8.0000001 0 0 0 0,15.999999836391"
     id="path2"
     style="stroke-width:0.5;stroke-dasharray:none" />
  <text
     xml:space="preserve"
     id="text1"
     style="font-style:normal;font-variant:normal;font-weight:bold;font-stretch:normal;font-size:13.3333px;line-height:normal;font-family:'Renault Group';-inkscape-font-specification:'Renault Group, Bold';font-variant-ligatures:normal;font-variant-caps:normal;font-variant-numeric:normal;font-variant-east-asian:normal;text-align:end;text-decoration-color:#000000;letter-spacing:0.19px;writing-mode:lr-tb;direction:ltr;white-space:pre;shape-inside:url(#rect1);fill-opacity:1;stroke-width:3;-inkscape-stroke:none"
     x="32.298515"
     y="0"
     transform="translate(-18.988114,-0.28887201)"><tspan
       x="19.216738"
       y="12.555524"
       id="tspan1">WIND</tspan></text>
  <text
     xml:space="preserve"
     id="text2"
     style="font-style:normal;font-variant:normal;font-weight:bold;font-stretch:normal;font-size:13.3333px;line-height:normal;font-family:'Renault Group';-inkscape-font-specification:'Renault Group, Bold';font-variant-ligatures:normal;font-variant-caps:normal;font-variant-numeric:normal;font-variant-east-asian:normal;text-align:start;text-decoration-color:#000000;letter-spacing:0.19px;writing-mode:lr-tb;direction:ltr;white-space:pre;shape-inside:url(#rect2);fill-opacity:1;stroke-width:3;-inkscape-stroke:none"
     transform="translate(-14.988114,-0.28887201)"><tspan
       x="72"
       y="12.555524"
       id="tspan2">LOGGER</tspan></text>
</svg>
